<svg width="60" height="60" viewBox="0 0 60 60" fill="none" xmlns="http://www.w3.org/2000/svg">
<path d="M37.2125 44.9998C35.7508 44.9998 34.5033 44.4831 33.47 43.4498C32.4383 42.4198 31.9225 41.174 31.9225 39.7123C31.9225 38.2506 32.4392 37.0031 33.4725 35.9698C34.5042 34.9381 35.7508 34.4223 37.2125 34.4223C38.6742 34.4223 39.9208 34.939 40.9525 35.9723C41.9842 37.004 42.5 38.2506 42.5 39.7123C42.5 41.174 41.9833 42.4206 40.95 43.4523C39.92 44.484 38.6742 44.9998 37.2125 44.9998ZM14.0375 52.4998C12.8875 52.4998 11.9275 52.1148 11.1575 51.3448C10.3858 50.5731 10 49.6123 10 48.4623V16.5373C10 15.3873 10.3858 14.4273 11.1575 13.6573C11.9275 12.8856 12.8875 12.4998 14.0375 12.4998H18.4625V6.9248H21.155V12.4998H39.0375V6.9248H41.5375V12.4998H45.9625C47.1125 12.4998 48.0725 12.8856 48.8425 13.6573C49.6142 14.4273 50 15.3873 50 16.5373V48.4623C50 49.6123 49.615 50.5723 48.845 51.3423C48.0733 52.114 47.1125 52.4998 45.9625 52.4998H14.0375ZM14.0375 49.9998H45.9625C46.3458 49.9998 46.6983 49.8398 47.02 49.5198C47.34 49.1981 47.5 48.8456 47.5 48.4623V26.5373H12.5V48.4623C12.5 48.8456 12.66 49.1981 12.98 49.5198C13.3017 49.8398 13.6542 49.9998 14.0375 49.9998ZM12.5 24.0373H47.5V16.5373C47.5 16.154 47.34 15.8015 47.02 15.4798C46.6983 15.1598 46.3458 14.9998 45.9625 14.9998H14.0375C13.6542 14.9998 13.3017 15.1598 12.98 15.4798C12.66 15.8015 12.5 16.154 12.5 16.5373V24.0373Z" fill="#0B3156"/>
</svg>
