<svg width="60" height="60" viewBox="0 0 60 60" fill="none" xmlns="http://www.w3.org/2000/svg">
<path d="M10 32.5V14.0375C10 12.8875 10.3858 11.9275 11.1575 11.1575C11.9275 10.3858 12.8875 10 14.0375 10H27.5V32.5H10ZM32.5 10H45.9625C47.1125 10 48.0725 10.3858 48.8425 11.1575C49.6142 11.9275 50 12.8933 50 14.055V22.5H32.5V10ZM32.5 50V27.5H50V45.9625C50 47.1125 49.615 48.0725 48.845 48.8425C48.0733 49.6142 47.1125 50 45.9625 50H32.5ZM10 37.5H27.5V50H14.0375C12.8875 50 11.9275 49.615 11.1575 48.845C10.3858 48.0733 10 47.1067 10 45.945V37.5ZM12.5 30H25V12.5H14.0375C13.5892 12.5 13.2208 12.6442 12.9325 12.9325C12.6442 13.2208 12.5 13.5892 12.5 14.0375V30ZM35 20H47.5V14.0375C47.5 13.5892 47.3558 13.2208 47.0675 12.9325C46.7792 12.6442 46.4108 12.5 45.9625 12.5H35V20ZM35 30V47.5H45.9625C46.4108 47.5 46.7792 47.3558 47.0675 47.0675C47.3558 46.7792 47.5 46.4108 47.5 45.9625V30H35ZM12.5 40V45.9625C12.5 46.4108 12.6442 46.7792 12.9325 47.0675C13.2208 47.3558 13.5892 47.5 14.0375 47.5H25V40H12.5Z" fill="white"/>
</svg>
