<svg width="60" height="61" viewBox="0 0 60 61" fill="none" xmlns="http://www.w3.org/2000/svg">
<path d="M45 20.5C45 16.5218 43.4196 12.7064 40.6066 9.8934C37.7936 7.08035 33.9782 5.5 30 5.5C26.0218 5.5 22.2064 7.08035 19.3934 9.8934C16.5804 12.7064 15 16.5218 15 20.5C15 38 7.5 43 7.5 43H52.5C52.5 43 45 38 45 20.5Z" stroke="white" stroke-width="2" stroke-linecap="round" stroke-linejoin="round"/>
<path d="M34.325 53C33.8855 53.7577 33.2547 54.3866 32.4956 54.8238C31.7366 55.261 30.876 55.4911 30 55.4911C29.1241 55.4911 28.2635 55.261 27.5045 54.8238C26.7454 54.3866 26.1146 53.7577 25.675 53" stroke="white" stroke-width="2" stroke-linecap="round" stroke-linejoin="round"/>
</svg>
