<svg width="60" height="60" viewBox="0 0 60 60" fill="none" xmlns="http://www.w3.org/2000/svg">
<path d="M48.7125 50.3853L33.0575 34.7304C31.8075 35.7954 30.37 36.6195 28.745 37.2029C27.12 37.7862 25.4867 38.0779 23.845 38.0779C19.8417 38.0779 16.4534 36.692 13.68 33.9204C10.9067 31.147 9.52002 27.7595 9.52002 23.7579C9.52002 19.7562 10.905 16.367 13.675 13.5904C16.4467 10.812 19.8334 9.42285 23.835 9.42285C27.8384 9.42285 31.2284 10.8095 34.005 13.5829C36.7817 16.3562 38.17 19.7454 38.17 23.7504C38.17 25.487 37.8625 27.1679 37.2475 28.7929C36.6309 30.4179 35.8225 31.8079 34.8225 32.9629L50.4775 48.6153L48.7125 50.3853ZM23.845 35.5754C27.1617 35.5754 29.9625 34.4337 32.2475 32.1504C34.5309 29.867 35.6725 27.0662 35.6725 23.7479C35.6725 20.4312 34.5309 17.6312 32.2475 15.3479C29.9642 13.0645 27.1642 11.9229 23.8475 11.9229C20.5309 11.9229 17.73 13.0645 15.445 15.3479C13.1617 17.6312 12.02 20.4312 12.02 23.7479C12.02 27.0645 13.1617 29.8645 15.445 32.1479C17.7284 34.4312 20.5284 35.5754 23.845 35.5754Z" fill="#0B3156"/>
</svg>
