<svg width="60" height="61" viewBox="0 0 60 61" fill="none" xmlns="http://www.w3.org/2000/svg">
<g clip-path="url(#clip0_368_1270)">
<path d="M30 43C31.3261 43 32.5979 43.5268 33.5355 44.4645C34.4732 45.4021 35 46.6739 35 48C35 49.3261 34.4732 50.5979 33.5355 51.5355C32.5979 52.4732 31.3261 53 30 53C28.6739 53 27.4021 52.4732 26.4645 51.5355C25.5268 50.5979 25 49.3261 25 48C25 46.6739 25.5268 45.4021 26.4645 44.4645C27.4021 43.5268 28.6739 43 30 43ZM30 25.5C31.3261 25.5 32.5979 26.0268 33.5355 26.9645C34.4732 27.9021 35 29.1739 35 30.5C35 31.8261 34.4732 33.0979 33.5355 34.0355C32.5979 34.9732 31.3261 35.5 30 35.5C28.6739 35.5 27.4021 34.9732 26.4645 34.0355C25.5268 33.0979 25 31.8261 25 30.5C25 29.1739 25.5268 27.9021 26.4645 26.9645C27.4021 26.0268 28.6739 25.5 30 25.5ZM30 8C31.3261 8 32.5979 8.52678 33.5355 9.46447C34.4732 10.4021 35 11.6739 35 13C35 14.3261 34.4732 15.5979 33.5355 16.5355C32.5979 17.4732 31.3261 18 30 18C28.6739 18 27.4021 17.4732 26.4645 16.5355C25.5268 15.5979 25 14.3261 25 13C25 11.6739 25.5268 10.4021 26.4645 9.46447C27.4021 8.52678 28.6739 8 30 8Z" fill="white"/>
</g>
<defs>
<clipPath id="clip0_368_1270">
<rect width="60" height="60" fill="white" transform="translate(0 0.5)"/>
</clipPath>
</defs>
</svg>
