<svg cache-id="e7142d05e7cc49fe86693fed01da5b0b" id="ecBodAhyxpg1" xmlns="http://www.w3.org/2000/svg" xmlns:xlink="http://www.w3.org/1999/xlink" viewBox="0 0 94 73" shape-rendering="geometricPrecision" text-rendering="geometricPrecision"><defs><linearGradient id="ecBodAhyxpg2-fill" x1="47" y1="0" x2="47" y2="73" spreadMethod="pad" gradientUnits="userSpaceOnUse" gradientTransform="translate(0 0)"><stop id="ecBodAhyxpg2-fill-0" offset="0%" stop-color="#f5c55a"/><stop id="ecBodAhyxpg2-fill-1" offset="27.2936%" stop-color="#f48065"/><stop id="ecBodAhyxpg2-fill-2" offset="52.8281%" stop-color="#f2398e"/><stop id="ecBodAhyxpg2-fill-3" offset="76.5017%" stop-color="#c1307c"/><stop id="ecBodAhyxpg2-fill-4" offset="100%" stop-color="#95296a"/></linearGradient><linearGradient id="ecBodAhyxpg3-fill" x1="47.25" y1="58" x2="47.25" y2="72.5" spreadMethod="pad" gradientUnits="userSpaceOnUse" gradientTransform="translate(0 0)"><stop id="ecBodAhyxpg3-fill-0" offset="0%" stop-color="rgba(243,138,94,0.8)"/><stop id="ecBodAhyxpg3-fill-1" offset="49.8281%" stop-color="#f36b70"/><stop id="ecBodAhyxpg3-fill-2" offset="100%" stop-color="#f24885"/></linearGradient><linearGradient id="ecBodAhyxpg4-fill" x1="19.1082" y1="0" x2="19.1082" y2="42.5" spreadMethod="pad" gradientUnits="userSpaceOnUse" gradientTransform="translate(0 0)"><stop id="ecBodAhyxpg4-fill-0" offset="0%" stop-color="#97296c"/><stop id="ecBodAhyxpg4-fill-1" offset="59.1743%" stop-color="#e7378b"/><stop id="ecBodAhyxpg4-fill-2" offset="100%" stop-color="#f4be5c"/></linearGradient><linearGradient id="ecBodAhyxpg5-fill" x1="75" y1="0.5" x2="75" y2="42" spreadMethod="pad" gradientUnits="userSpaceOnUse" gradientTransform="translate(0 0)"><stop id="ecBodAhyxpg5-fill-0" offset="0%" stop-color="#97296c"/><stop id="ecBodAhyxpg5-fill-1" offset="59.1743%" stop-color="#e7378b"/><stop id="ecBodAhyxpg5-fill-2" offset="100%" stop-color="#f4be5c"/></linearGradient></defs><path d="M0,0c12.5,4.83333,47,17.5,94,.5-.5,4-6,11.5-18.5,13C55.8295,15.8605,56,25.3212,56,38.5C56,53,62,57,63,73h-32.5c.3333-3.6667,1.8-12.9,5-20.5c4-9.5,2.5-20,1.5-26s-4-11-18.5-12.5C6.9,12.8,1.33333,4.16667,0,0Z" fill="url(#ecBodAhyxpg2-fill)"/><path d="M47,58.5C35,58.5,30.5915,69,30.5915,73L63,73c0-4-4-14.5-16-14.5Z" fill="url(#ecBodAhyxpg3-fill)" fill-opacity="0.7"/><path d="M19,14C8.08308,12.3205,2,5.5,0,0c.5,5.5,3.10679,15.7848,6,23.5c3,8,3.5,16,3,19c2.5-2,8.6-8.6,13-19c4.3333,1.3333,13.6,6.8,16,16c.5,4.5.5-13.5-2.5-18s-3.5-5.5-16.5-7.5Z" fill="url(#ecBodAhyxpg4-fill)"/><path d="M75,13.5C85.9265,11.861,92,7,94,0.5C94,9,90.4596,14.1292,88,22c-2.5,8-3.5,17.3333-3.5,20C76,34.5,74.5,29,72,23.5c-6.5,1.5-15,10-16,15c0-1.5-.5-12.78,2.5-17s6.5-6.5,16.5-8Z" fill="url(#ecBodAhyxpg5-fill)"/></svg>
