<svg width="16" height="16" viewBox="0 0 16 16" fill="none" xmlns="http://www.w3.org/2000/svg">
<path d="M2.7854 2.375C2.61964 2.375 2.46067 2.44085 2.34346 2.55806C2.22625 2.67527 2.1604 2.83424 2.1604 3C2.1604 5.81793 3.27982 8.52044 5.27239 10.513C7.26496 12.5056 9.96748 13.625 12.7854 13.625C12.9512 13.625 13.1101 13.5592 13.2273 13.4419C13.3446 13.3247 13.4104 13.1658 13.4104 13V10.8125C13.4104 10.6467 13.3446 10.4878 13.2273 10.3706C13.1101 10.2533 12.9512 10.1875 12.7854 10.1875C12.0104 10.1875 11.2542 10.0625 10.5542 9.83125C10.3354 9.7625 10.0917 9.8125 9.91665 9.9875L8.54165 11.3625C6.77004 10.4565 5.32891 9.01536 4.4229 7.24375L5.7979 5.8625C5.9729 5.69375 6.0229 5.45 5.95415 5.23125C5.7229 4.53125 5.5979 3.775 5.5979 3C5.5979 2.83424 5.53205 2.67527 5.41484 2.55806C5.29763 2.44085 5.13866 2.375 4.9729 2.375M10.2854 2.375V4.25H8.4104V5.5H10.2854V7.375H11.5354V5.5H13.4104V4.25H11.5354V2.375" fill="black"/>
</svg>
