<svg width="16" height="16" viewBox="0 0 16 16" fill="none" xmlns="http://www.w3.org/2000/svg">
<g clip-path="url(#clip0_566_1936)">
<path d="M11.5354 11.75H11.4402C11.3279 11.2031 11.1301 10.7002 10.8469 10.2412C10.5637 9.78223 10.2195 9.38672 9.81421 9.05469C9.40894 8.72266 8.95239 8.46387 8.44458 8.27832C7.93677 8.09277 7.40454 8 6.8479 8C6.41821 8 6.00317 8.05615 5.60278 8.16846C5.20239 8.28076 4.82886 8.43701 4.48218 8.63721C4.1355 8.8374 3.82056 9.08154 3.53735 9.36963C3.25415 9.65771 3.01001 9.9751 2.80493 10.3218C2.59985 10.6685 2.44116 11.042 2.32886 11.4424C2.21655 11.8428 2.1604 12.2578 2.1604 12.6875H1.2229C1.2229 12.1016 1.30835 11.5376 1.47925 10.9956C1.65015 10.4536 1.89673 9.95313 2.21899 9.49414C2.54126 9.03516 2.92212 8.62744 3.36157 8.271C3.80103 7.91455 4.29907 7.63379 4.85571 7.42871C4.30396 7.06738 3.87427 6.61328 3.56665 6.06641C3.25903 5.51953 3.10278 4.91406 3.0979 4.25C3.0979 3.73242 3.19556 3.24658 3.39087 2.79248C3.58618 2.33838 3.85229 1.94043 4.18921 1.59863C4.52612 1.25684 4.92407 0.988281 5.38306 0.792969C5.84204 0.597656 6.33032 0.5 6.8479 0.5C7.36548 0.5 7.85132 0.597656 8.30542 0.792969C8.75952 0.988281 9.15747 1.25439 9.49927 1.59131C9.84106 1.92822 10.1096 2.32617 10.3049 2.78516C10.5002 3.24414 10.5979 3.73242 10.5979 4.25C10.5979 4.57227 10.5588 4.88721 10.4807 5.19482C10.4026 5.50244 10.2854 5.79297 10.1292 6.06641C9.9729 6.33984 9.78979 6.59131 9.57983 6.8208C9.36987 7.05029 9.12329 7.25293 8.84009 7.42871C9.38696 7.63867 9.88989 7.92676 10.3489 8.29297C10.8079 8.65918 11.2034 9.08887 11.5354 9.58203V11.75ZM4.0354 4.25C4.0354 4.64062 4.10864 5.00439 4.25513 5.34131C4.40161 5.67822 4.60181 5.97607 4.85571 6.23486C5.10962 6.49365 5.40747 6.69629 5.74927 6.84277C6.09106 6.98926 6.45728 7.0625 6.8479 7.0625C7.23364 7.0625 7.59741 6.98926 7.93921 6.84277C8.28101 6.69629 8.57886 6.49609 8.83276 6.24219C9.08667 5.98828 9.28931 5.69043 9.44067 5.34863C9.59204 5.00684 9.66528 4.64062 9.6604 4.25C9.6604 3.86426 9.58716 3.50049 9.44067 3.15869C9.29419 2.81689 9.09399 2.51904 8.84009 2.26514C8.58618 2.01123 8.28589 1.80859 7.93921 1.65723C7.59253 1.50586 7.22876 1.43262 6.8479 1.4375C6.45728 1.4375 6.09351 1.51074 5.75659 1.65723C5.41968 1.80371 5.12183 2.00391 4.86304 2.25781C4.60425 2.51172 4.40161 2.81201 4.25513 3.15869C4.10864 3.50537 4.0354 3.86914 4.0354 4.25ZM13.4104 12.6875H15.2854V13.625H13.4104V15.5H12.4729V13.625H10.5979V12.6875H12.4729V10.8125H13.4104V12.6875Z" fill="black"/>
</g>
<defs>
<clipPath id="clip0_566_1936">
<rect width="15" height="15" fill="white" transform="translate(0.2854 0.5)"/>
</clipPath>
</defs>
</svg>
