<svg width="21" height="20" viewBox="0 0 21 20" fill="none" xmlns="http://www.w3.org/2000/svg">
<path d="M10.2854 1.25C5.4104 1.25 1.5354 5.125 1.5354 10C1.5354 14.875 5.4104 18.75 10.2854 18.75C15.1604 18.75 19.0354 14.875 19.0354 10C19.0354 5.125 15.1604 1.25 10.2854 1.25ZM10.2854 17.5C6.1604 17.5 2.7854 14.125 2.7854 10C2.7854 5.875 6.1604 2.5 10.2854 2.5C14.4104 2.5 17.7854 5.875 17.7854 10C17.7854 14.125 14.4104 17.5 10.2854 17.5Z" fill="black"/>
<path d="M13.6604 14.375L10.2854 11L6.9104 14.375L5.9104 13.375L9.2854 10L5.9104 6.625L6.9104 5.625L10.2854 9L13.6604 5.625L14.6604 6.625L11.2854 10L14.6604 13.375L13.6604 14.375Z" fill="black"/>
</svg>
