<svg width="24" height="33" viewBox="0 0 24 33" fill="none" xmlns="http://www.w3.org/2000/svg">
<path d="M11.9999 0.833496C13.326 0.833496 14.5978 1.36028 15.5355 2.29796C16.4731 3.23564 16.9999 4.50741 16.9999 5.8335V15.8335C16.9999 17.1596 16.4731 18.4313 15.5355 19.369C14.5978 20.3067 13.326 20.8335 11.9999 20.8335C10.6738 20.8335 9.40207 20.3067 8.46438 19.369C7.5267 18.4313 6.99992 17.1596 6.99992 15.8335V5.8335C6.99992 4.50741 7.5267 3.23564 8.46438 2.29796C9.40207 1.36028 10.6738 0.833496 11.9999 0.833496ZM23.6666 15.8335C23.6666 21.7168 19.3166 26.5668 13.6666 27.3835V32.5002H10.3333V27.3835C4.68325 26.5668 0.333252 21.7168 0.333252 15.8335H3.66659C3.66659 18.0436 4.54456 20.1632 6.10736 21.7261C7.67017 23.2889 9.78978 24.1668 11.9999 24.1668C14.2101 24.1668 16.3297 23.2889 17.8925 21.7261C19.4553 20.1632 20.3333 18.0436 20.3333 15.8335H23.6666Z" fill="url(#paint0_linear_547_733)"/>
<defs>
<linearGradient id="paint0_linear_547_733" x1="0.333252" y1="12.851" x2="23.6666" y2="12.851" gradientUnits="userSpaceOnUse">
<stop stop-color="#0A3155"/>
<stop offset="1" stop-color="#5F0061"/>
</linearGradient>
</defs>
</svg>
