<svg width="15" height="15" viewBox="0 0 15 15" fill="none" xmlns="http://www.w3.org/2000/svg">
<path d="M12.9437 4.4001C12.7312 4.6126 12.525 4.81885 12.5188 5.0251C12.5 5.2251 12.7125 5.43135 12.9125 5.6251C13.2125 5.9376 13.5063 6.21885 13.4937 6.5251C13.4812 6.83135 13.1625 7.1501 12.8438 7.4626L10.2625 10.0501L9.375 9.1626L12.0312 6.5126L11.4313 5.9126L10.5438 6.79385L8.2 4.4501L10.6 2.05635C10.8437 1.8126 11.25 1.8126 11.4813 2.05635L12.9437 3.51885C13.1875 3.7501 13.1875 4.15635 12.9437 4.4001ZM1.875 10.7813L7.85 4.8001L10.1937 7.14385L4.21875 13.1251H1.875V10.7813Z" fill="#B1BCC3" fill-opacity="0.3"/>
</svg>
