<svg width="25" height="26" viewBox="0 0 25 26" fill="none" xmlns="http://www.w3.org/2000/svg">
<path d="M20.3125 3.625H4.6875C4.2731 3.625 3.87567 3.78962 3.58265 4.08265C3.28962 4.37567 3.125 4.7731 3.125 5.1875V20.8125C3.125 21.2269 3.28962 21.6243 3.58265 21.9174C3.87567 22.2104 4.2731 22.375 4.6875 22.375H20.3125C20.7269 22.375 21.1243 22.2104 21.4174 21.9174C21.7104 21.6243 21.875 21.2269 21.875 20.8125V5.1875C21.875 4.7731 21.7104 4.37567 21.4174 4.08265C21.1243 3.78962 20.7269 3.625 20.3125 3.625ZM17.9688 13.7812H13.2812V18.4688C13.2812 18.676 13.1989 18.8747 13.0524 19.0212C12.9059 19.1677 12.7072 19.25 12.5 19.25C12.2928 19.25 12.0941 19.1677 11.9476 19.0212C11.8011 18.8747 11.7188 18.676 11.7188 18.4688V13.7812H7.03125C6.82405 13.7812 6.62534 13.6989 6.47882 13.5524C6.33231 13.4059 6.25 13.2072 6.25 13C6.25 12.7928 6.33231 12.5941 6.47882 12.4476C6.62534 12.3011 6.82405 12.2188 7.03125 12.2188H11.7188V7.53125C11.7188 7.32405 11.8011 7.12534 11.9476 6.97882C12.0941 6.83231 12.2928 6.75 12.5 6.75C12.7072 6.75 12.9059 6.83231 13.0524 6.97882C13.1989 7.12534 13.2812 7.32405 13.2812 7.53125V12.2188H17.9688C18.176 12.2188 18.3747 12.3011 18.5212 12.4476C18.6677 12.5941 18.75 12.7928 18.75 13C18.75 13.2072 18.6677 13.4059 18.5212 13.5524C18.3747 13.6989 18.176 13.7812 17.9688 13.7812Z" fill="black"/>
</svg>
