<svg width="18" height="18" viewBox="0 0 18 18" fill="none" xmlns="http://www.w3.org/2000/svg">
<path d="M1.2854 8.16667C1.2854 5.02417 1.2854 3.4525 2.26207 2.47667C3.2379 1.5 4.80957 1.5 7.95207 1.5H9.61873C12.7612 1.5 14.3329 1.5 15.3087 2.47667C16.2854 3.4525 16.2854 5.02417 16.2854 8.16667V9.83333C16.2854 12.9758 16.2854 14.5475 15.3087 15.5233C14.3329 16.5 12.7612 16.5 9.61873 16.5H7.95207C4.80957 16.5 3.2379 16.5 2.26207 15.5233C1.2854 14.5475 1.2854 12.9758 1.2854 9.83333V8.16667Z" stroke="black" stroke-width="2"/>
<path fill-rule="evenodd" clip-rule="evenodd" d="M14.6188 10.3209L14.6021 10.3042C14.2771 9.9792 13.9971 9.6992 13.7471 9.48837C13.483 9.26587 13.1955 9.07003 12.8405 8.96337C12.3698 8.82147 11.8678 8.82147 11.3971 8.96337C11.0421 9.07087 10.7555 9.26587 10.4905 9.48837C10.2405 9.6992 9.96048 9.98003 9.63632 10.305L9.61215 10.3284C9.35632 10.5834 9.20632 10.7334 9.08882 10.8292L9.07215 10.8434L9.06215 10.8242C8.98965 10.6909 8.90465 10.4967 8.76215 10.1642L8.71798 10.0609L8.69965 10.0175C8.40298 9.32587 8.15381 8.7442 7.90798 8.30587C7.65381 7.85503 7.33715 7.43087 6.84382 7.1842C6.43222 6.97802 5.97169 6.88949 5.51298 6.92837C4.96298 6.9742 4.51215 7.25003 4.10882 7.5742C3.77048 7.8467 3.39215 8.21587 2.95215 8.65503V9.83337C2.95215 10.2642 2.95215 10.6542 2.95465 11.0092L3.88298 10.0809C4.45798 9.50587 4.84132 9.12503 5.15382 8.87253C5.46215 8.6242 5.59548 8.59337 5.65381 8.5892C5.8066 8.57621 5.96001 8.60562 6.09715 8.6742C6.14798 8.70003 6.26048 8.77753 6.45548 9.1242C6.65215 9.4742 6.86632 9.97087 7.18632 10.7175L7.23048 10.8209L7.24465 10.8525C7.36882 11.1425 7.48382 11.4109 7.59882 11.6225C7.71965 11.8434 7.89465 12.1084 8.18965 12.2909C8.53723 12.5062 8.95186 12.5863 9.35465 12.5159C9.69632 12.455 9.95715 12.2742 10.1513 12.1142C10.3363 11.9609 10.543 11.7542 10.7663 11.5309L10.7913 11.5059C11.1455 11.1517 11.3755 10.9225 11.5646 10.7634C11.7463 10.61 11.8313 10.5734 11.878 10.5592C12.035 10.5118 12.2026 10.5118 12.3596 10.5592C12.4063 10.5734 12.4913 10.61 12.673 10.7634C12.8621 10.9225 13.0921 11.1517 13.4471 11.5067L14.5721 12.6317C14.6105 12.0334 14.6171 11.29 14.6188 10.3209Z" fill="black"/>
<path d="M12.5354 6.5C13.2258 6.5 13.7854 5.94036 13.7854 5.25C13.7854 4.55964 13.2258 4 12.5354 4C11.845 4 11.2854 4.55964 11.2854 5.25C11.2854 5.94036 11.845 6.5 12.5354 6.5Z" fill="black"/>
</svg>
