<svg width="30" height="30" viewBox="0 0 30 30" fill="none" xmlns="http://www.w3.org/2000/svg">
<path d="M8.07693 12.1154C8.07693 11.7731 8.17844 11.4384 8.36862 11.1538C8.55879 10.8692 8.8291 10.6474 9.14536 10.5164C9.46162 10.3854 9.80962 10.3511 10.1454 10.4179C10.4811 10.4847 10.7895 10.6495 11.0315 10.8915C11.2736 11.1336 11.4384 11.442 11.5052 11.7777C11.572 12.1135 11.5377 12.4615 11.4067 12.7777C11.2757 13.094 11.0539 13.3643 10.7693 13.5545C10.4846 13.7446 10.15 13.8462 9.8077 13.8462C9.34867 13.8462 8.90844 13.6638 8.58386 13.3392C8.25928 13.0146 8.07693 12.5744 8.07693 12.1154ZM20.1923 13.8462C20.5346 13.8462 20.8692 13.7446 21.1539 13.5545C21.4385 13.3643 21.6603 13.094 21.7913 12.7777C21.9223 12.4615 21.9566 12.1135 21.8898 11.7777C21.823 11.442 21.6582 11.1336 21.4161 10.8915C21.1741 10.6495 20.8657 10.4847 20.53 10.4179C20.1942 10.3511 19.8462 10.3854 19.53 10.5164C19.2137 10.6474 18.9434 10.8692 18.7532 11.1538C18.563 11.4384 18.4615 11.7731 18.4615 12.1154C18.4615 12.5744 18.6439 13.0146 18.9685 13.3392C19.2931 13.6638 19.7333 13.8462 20.1923 13.8462ZM30 15C30 17.9667 29.1203 20.8668 27.472 23.3335C25.8238 25.8003 23.4811 27.7229 20.7403 28.8582C17.9994 29.9935 14.9834 30.2906 12.0736 29.7118C9.16393 29.133 6.49119 27.7044 4.3934 25.6066C2.29562 23.5088 0.867006 20.8361 0.288227 17.9264C-0.290551 15.0166 0.00649927 12.0006 1.14181 9.25975C2.27713 6.51886 4.19971 4.17618 6.66645 2.52796C9.13319 0.879735 12.0333 0 15 0C18.9769 0.00450112 22.7896 1.5863 25.6016 4.39837C28.4137 7.21044 29.9955 11.0231 30 15ZM27.6923 15C27.6923 12.4897 26.9479 10.0358 25.5533 7.94853C24.1586 5.86129 22.1764 4.23449 19.8571 3.27384C17.5379 2.31319 14.9859 2.06184 12.5239 2.55157C10.0618 3.04131 7.80024 4.25013 6.02519 6.02518C4.25014 7.80023 3.04131 10.0618 2.55158 12.5239C2.06184 14.9859 2.31319 17.5379 3.27384 19.8571C4.23449 22.1763 5.8613 24.1586 7.94854 25.5533C10.0358 26.9479 12.4897 27.6923 15 27.6923C18.365 27.6885 21.5912 26.3501 23.9706 23.9706C26.3501 21.5912 27.6885 18.365 27.6923 15ZM21.5746 17.4622C21.3097 17.309 20.9948 17.2672 20.6992 17.3462C20.4035 17.4251 20.1513 17.6183 19.9981 17.8832C19.3684 18.971 18.4023 19.8248 17.2452 20.3158C16.1877 20.7631 15.0207 20.8843 13.8938 20.664C12.7669 20.4436 11.7316 19.8916 10.9205 19.0789C10.5636 18.722 10.2548 18.3201 10.0019 17.8834C9.84843 17.619 9.5963 17.4263 9.30089 17.3477C9.00547 17.269 8.69092 17.3109 8.42631 17.4639C8.16169 17.617 7.96864 17.8688 7.88953 18.1641C7.81043 18.4594 7.85174 18.774 8.00439 19.0389C8.71401 20.2661 9.73397 21.285 10.9619 21.9934C12.1898 22.7018 13.5825 23.0747 15 23.0746C16.4176 23.0746 17.8103 22.7017 19.0382 21.9933C20.2661 21.2849 21.286 20.266 21.9956 19.0387C22.1488 18.7738 22.1906 18.4589 22.1116 18.1633C22.0327 17.8676 21.8395 17.6154 21.5746 17.4622Z" fill="url(#paint0_linear_547_725)"/>
<defs>
<linearGradient id="paint0_linear_547_725" x1="-3.8095e-07" y1="11.385" x2="30" y2="11.385" gradientUnits="userSpaceOnUse">
<stop stop-color="#0A3155"/>
<stop offset="1" stop-color="#5F0061"/>
</linearGradient>
</defs>
</svg>
