<svg width="62" height="60" viewBox="0 0 62 60" fill="none" xmlns="http://www.w3.org/2000/svg">
<path d="M13.4417 29.999H8.42505L31 7.49902L53.575 29.999H48.5584M13.4417 29.999V47.499C13.4417 48.8251 13.9703 50.0969 14.9111 51.0346C15.8519 51.9722 17.1279 52.499 18.4584 52.499H43.5417C44.8722 52.499 46.1482 51.9722 47.089 51.0346C48.0298 50.0969 48.5584 48.8251 48.5584 47.499V29.999" stroke="white" stroke-width="2" stroke-linecap="round" stroke-linejoin="round"/>
<path d="M23.4751 52.499V37.499C23.4751 36.1729 24.0036 34.9012 24.9444 33.9635C25.8853 33.0258 27.1613 32.499 28.4918 32.499H33.5084C34.8389 32.499 36.1149 33.0258 37.0557 33.9635C37.9966 34.9012 38.5251 36.1729 38.5251 37.499V52.499" stroke="white" stroke-width="2" stroke-linecap="round" stroke-linejoin="round"/>
</svg>
