                            <svg width="66" height="62" viewBox="0 0 66 62" fill="none" xmlns="http://www.w3.org/2000/svg">
                                <g filter="url(#filter0_d_391_1491)">
                                    <path
                                        d="M45.5 53V48C45.5 45.3478 44.4464 42.8043 42.5711 40.9289C40.6957 39.0536 38.1522 38 35.5 38H15.5C12.8478 38 10.3043 39.0536 8.42893 40.9289C6.55357 42.8043 5.5 45.3478 5.5 48V53"
                                        stroke="white" stroke-wSidth="2" stroke-linecap="round" stroke-linejoin="round" />
                                    <path
                                        d="M25.5 28C31.0228 28 35.5 23.5228 35.5 18C35.5 12.4772 31.0228 8 25.5 8C19.9772 8 15.5 12.4772 15.5 18C15.5 23.5228 19.9772 28 25.5 28Z"
                                        stroke="white" stroke-width="2" stroke-linecap="round" stroke-linejoin="round" />
                                    <path
                                        d="M60.5 53.0002V48.0002C60.4983 45.7845 59.7609 43.6321 58.4034 41.881C57.0459 40.1298 55.1453 38.8791 53 38.3252"
                                        stroke="white" stroke-width="2" stroke-linecap="round" stroke-linejoin="round" />
                                    <path
                                        d="M43 8.3252C45.151 8.87595 47.0576 10.1269 48.4191 11.881C49.7806 13.635 50.5196 15.7923 50.5196 18.0127C50.5196 20.2331 49.7806 22.3904 48.4191 24.1444C47.0576 25.8984 45.151 27.1494 43 27.7002"
                                        stroke="white" stroke-width="2" stroke-linecap="round" stroke-linejoin="round" />
                                </g>
                                <defs>
                                    <filter id="filter0_d_391_1491" x="-1" y="0.5" width="68" height="68"
                                        filterUnits="userSpaceOnUse" color-interpolation-filters="sRGB">
                                        <feFlood flood-opacity="0" result="BackgroundImageFix" />
                                        <feColorMatrix in="SourceAlpha" type="matrix"
                                            values="0 0 0 0 0 0 0 0 0 0 0 0 0 0 0 0 0 0 127 0" result="hardAlpha" />
                                        <feOffset dy="4" />
                                        <feGaussianBlur stdDeviation="2" />
                                        <feComposite in2="hardAlpha" operator="out" />
                                        <feColorMatrix type="matrix" values="0 0 0 0 0 0 0 0 0 0 0 0 0 0 0 0 0 0 0.25 0" />
                                        <feBlend mode="normal" in2="BackgroundImageFix"
                                            result="effect1_dropShadow_391_1491" />
                                        <feBlend mode="normal" in="SourceGraphic" in2="effect1_dropShadow_391_1491"
                                            result="shape" />
                                    </filter>
                                </defs>
                            </svg>